# AST/ASF file generated using VICON BodyLanguage
# -----------------------------------------------
:version 1.10
:name VICON
:units
  mass 1.0
  length 0.45
  angle deg
:documentation
   .ast/.asf automatically generated from VICON data using
   VICON BodyBuilder and BodyLanguage model FoxedUp or BRILLIANT.MOD
:root
   order TX TY TZ RX RY RZ
   axis XYZ
   position 0 0 0  
   orientation 0 0 0 
:bonedata
  begin
     id 1 
     name lhipjoint
     direction 0.707368 -0.647095 0.284426 
     length 2.60678 
     axis 0 0 0  XYZ
  end
  begin
     id 2 
     name lfemur
     direction 0.34202 -0.939693 0  
     length 6.63812  
     axis 0 0 20  XYZ
    dof rx ry rz
    limits (-160.0 20.0)
           (-70.0 70.0)
           (-60.0 70.0)
  end
  begin
     id 3 
     name ltibia
     direction 0.34202 -0.939693 0   
     length 7.51178   
     axis 0 0 20   XYZ
    dof rx
    limits (-10.0 170.0)
  end
  begin
     id 4 
     name lfoot
     direction 0.121251 -0.333133 0.935051   
     length 1.83716   
     axis -90 7.62852e-016 20   XYZ
    dof rx rz
    limits (-45.0 90.0)
           (-70.0 20.0)
  end
  begin
     id 5 
     name ltoes
     direction 1.53611e-011 -4.21962e-011 1   
     length 0.916133   
     axis -90 7.62852e-016 20   XYZ
    dof rx
    limits (-90.0 20.0)
  end
  begin
     id 6 
     name rhipjoint
     direction -0.692419 -0.660507 0.290321   
     length 2.55385  
     axis 0 0 0  XYZ 
  end
  begin
     id 7 
     name rfemur
     direction -0.34202 -0.939693 0   
     length 7.29079   
     axis 0 0 -20   XYZ
    dof rx ry rz
    limits (-160.0 20.0)
           (-70.0 70.0)
           (-70.0 60.0)
  end
  begin
     id 8 
     name rtibia
     direction -0.34202 -0.939693 0   
     length 7.47143   
     axis 0 0 -20   XYZ
    dof rx
    limits (-10.0 170.0)
 end
 begin
     id 9 
     name rfoot
     direction -0.119907 -0.329441 0.936532   
     length 1.79439  
     axis -90 -7.62852e-016 -20   XYZ
    dof rx rz
    limits (-45.0 90.0)
           (-20.0 70.0)
  end
  begin
     id 10 
     name rtoes
     direction -1.53571e-011 -4.21961e-011 1   
     length 0.896039   
     axis -90 -7.62852e-016 -20   XYZ
    dof rx
    limits (-90.0 20.0)
  end
  begin
     id 11 
     name lowerback
     direction 0.0367721 0.992912 -0.113016   
     length 1.73542   
     axis 0 0 0   XYZ
    dof rx ry rz
    limits (-20.0 45.0)
           (-30.0 30.0)
           (-30.0 30.0)
  end
  begin
     id 12 
     name upperback
     direction -0.000314626 0.990678 0.136227   
     length 1.7514   
     axis 0 0 0   XYZ
    dof rx ry rz
    limits (-20.0 45.0)
           (-30.0 30.0)
           (-30.0 30.0)
  end
  begin
     id 13 
     name thorax
     direction -0.0226159 0.981151 0.191917   
     length 1.71471   
     axis 0 0 0   XYZ
    dof rx ry rz
    limits (-20.0 45.0)
           (-30.0 30.0)
           (-30.0 30.0)
  end
  begin
     id 14 
     name lowerneck
     direction 0.0219333 0.998071 0.0580739   
     length 1.65882   
     axis 0 0 0   XYZ
    dof rx ry rz
    limits (-20.0 45.0)
           (-30.0 30.0)
           (-30.0 30.0)
  end
  begin
     id 15 
     name upperneck
     direction 0.0384529 0.980058 -0.194957   
     length 1.6612   
     axis 0 0 0   XYZ
    dof rx ry rz
    limits (-20.0 45.0)
           (-30.0 30.0)
           (-30.0 30.0)
  end
  begin
     id 16
     name head
     direction 0.00592123 0.997421 -0.0715234  
     length 1.68077  
     axis 0 0 0   XYZ
    dof rx ry rz
    limits (-20.0 45.0)
           (-30.0 30.0)
           (-30.0 30.0)
  end
  begin
     id 17 
     name lclavicle
     direction 0.904803 0.417826 0.0821728  
     length 3.42227  
     axis 0 0 0   XYZ
    dof ry rz
    limits (-20.0 10.0)
           (0.0 20.0)
  end
  begin
     id 18 
     name lhumerus
     direction 1 -4.48965e-011 -2.68786e-027   
     length 5.11878   
     axis -180 -30 -90   XYZ
    dof rx ry rz
    limits (-60.0 90.0)
           (-90.0 90.0)
           (-90.0 90.0)
  end
  begin
     id 19
     name lradius
     direction 1 -4.48965e-011 2.61168e-028   
     length 3.59971   
     axis -180 -30 -90   XYZ
    dof rx
    limits (-10.0 170.0)
  end
  begin
     id 20
     name lwrist
     direction 1 -4.48965e-011 1.58672e-027   
     length 1.79985   
     axis -1.65735e-015 90 90   XYZ
    dof ry
    limits (-180.0 0.0)
 end
  begin
     id 21 
     name lhand
     direction 1 -4.48942e-011 3.17344e-027   
     length 0.62877   
     axis -2.02492e-015 90 90   XYZ
    dof rx rz
    limits (-90.0 90.0)
           (-45.0 45.0)
  end
  begin
     id 22 
     name lfingers
     direction 1 -4.49011e-011 6.34687e-027   
     length 0.506931   
     axis -4.04985e-015 90 90   XYZ
    dof rx
    limits (0.0 90.0)
  end
  begin
     id 23
     name lthumb
     direction 0.707107 -6.34982e-011 0.707107   
     length 0.727854   
     axis -90 45 2.85299e-015   XYZ
    dof rx rz
    limits (-45.0 45.0)
           (-45.0 45.0)
  end
  begin
     id 24 
     name rclavicle
     direction -0.945647 0.32488 0.0143075   
     length 3.52737  
     axis 0 0 0   XYZ 
    dof ry rz
    limits (-10.0 20.0)
           (-20.0 0.0)
  end
  begin
     id 25 
     name rhumerus
     direction -1 -4.48962e-011 1.92182e-027  
     length 5.4902   
     axis -180 30 90   XYZ
    dof rx ry rz
    limits (-90.0 60.0)
           (-90.0 90.0)
           (-90.0 90.0)
  end
  begin
     id 26 
     name rradius
     direction -1 -4.48967e-011 -5.97193e-028   
     length 3.20659   
     axis -180 30 90   XYZ
    dof rx
    limits (-10.0 170.0)
  end
  begin
     id 27 
     name rwrist
     direction -1 -4.48964e-011 1.58672e-027   
     length 1.6033   
     axis -1.65735e-015 -90 -90   XYZ
    dof ry
    limits (-180.0 0.0)
  end
  begin
     id 28
     name rhand
     direction -1 -4.49006e-011 3.17344e-027   
     length 0.691885   
     axis -2.02492e-015 -90 -90   XYZ
    dof rx rz
    limits (-90.0 90.0)
           (-45.0 45.0)
  end
  begin
     id 29
     name rfingers
     direction -1 -4.48908e-011 6.34687e-027   
     length 0.557815   
     axis -4.04985e-015 -90 -90   XYZ
    dof rx
    limits (0.0 90.0)
  end
  begin
     id 30
     name rthumb
     direction -0.707107 -6.34999e-011 0.707107   
     length 0.800915   
     axis -90 -45 -2.85299e-015   XYZ
    dof rx rz
    limits (-45.0 45.0)
           (-45.0 45.0)
  end
:hierarchy
  begin
    root lhipjoint rhipjoint lowerback
    lhipjoint lfemur
    lfemur ltibia
    ltibia lfoot
    lfoot ltoes
    rhipjoint rfemur
    rfemur rtibia
    rtibia rfoot
    rfoot rtoes
    lowerback upperback
    upperback thorax
    thorax lowerneck lclavicle rclavicle
    lowerneck upperneck
    upperneck head
    lclavicle lhumerus
    lhumerus lradius
    lradius lwrist
    lwrist lhand lthumb
    lhand lfingers
    rclavicle rhumerus
    rhumerus rradius
    rradius rwrist
    rwrist rhand rthumb
    rhand rfingers
  end

#!OML:ASF I:\Actors\actors\Patient Classification 1\Patient 1\Session 1\Subject1.ASF
:FULLY-SPECIFIED
:DEGREES
1
root 0.0506392 17.4258 8.21067 8.58324 -1.58067 -8.04375
lowerback -0.359097 1.02735 4.53678
upperback -9.70805 1.8275 2.49638
thorax -10.0523 0.64148 -0.018128
lowerneck -10.8606 -7.86581 -5.374
upperneck 30.3979 -11.8989 4.9822
head 12.4974 -5.3654 1.10611
rclavicle 6.13748e-015 -1.56046e-014
rhumerus -45.6293 -24.2319 -71.3203
rradius 24.8564
rwrist 43.8516
rhand 10.4979 -35.0974
rfingers 7.12502
rthumb 35.5984 -61.5116
lclavicle 6.13748e-015 -1.56046e-014
lhumerus -46.4115 22.4121 75.8931
lradius 22.1492
lwrist -27.8499
lhand -17.6 -12.0781
lfingers 7.12502
lthumb 8.65634 17.7244
rfemur -2.8203 26.4633 22.1755
rtibia 0.55046
rfoot -12.3351 -26.9639
rtoes -0.95236
lfemur 10.0622 -53.4697 -16.5821
ltibia -4.33605
lfoot -44.3277 58.7688
ltoes 24.2975
2
root 0.0424369 17.4229 8.18974 9.12637 -1.78008 -8.58754
lowerback -0.585075 1.13034 4.91613
upperback -9.87347 1.99121 2.66149
thorax -10.1001 0.695886 -0.0600015
lowerneck -10.8962 -7.86752 -5.3869
upperneck 30.4209 -11.9099 5.01516
head 12.5186 -5.36603 1.11702
rclavicle -8.19987e-015 -1.2921e-014
rhumerus -45.5596 -24.2799 -71.3393
rradius 24.848
rwrist 43.8941
rhand 10.4754 -35.067
rfingers 7.12502
rthumb 35.5771 -61.4863
lclavicle -8.19987e-015 -1.2921e-014
lhumerus -46.3723 22.4074 75.9076
lradius 22.1437
lwrist -27.8234
lhand -17.5988 -12.1804
lfingers 7.12502
lthumb 8.65754 17.6221
rfemur -3.87285 26.5989 22.4477
rtibia 1.03113
rfoot -12.053 -26.8444
rtoes -2.06297
lfemur 8.73139 -52.979 -14.6948
ltibia -4.46479
lfoot -44.1832 58.5591
ltoes 24.5309
3
root 0.0362198 17.4192 8.17454 9.58473 -1.65982 -8.97031
lowerback -0.807036 1.13673 5.23185
upperback -10.0448 2.01621 2.76175
thorax -10.1606 0.683807 -0.124218
lowerneck -10.8955 -7.88242 -5.46
upperneck 30.4552 -11.9509 5.11511
head 12.5486 -5.37922 1.15963
rclavicle 1.99779e-014 -2.3556e-014
rhumerus -45.5719 -24.3357 -71.3285
rradius 24.8548
rwrist 43.9249
rhand 10.4885 -35.0134
rfingers 7.12502
rthumb 35.5895 -61.4297
lclavicle 1.99779e-014 -2.3556e-014
lhumerus -46.3782 22.2989 75.9614
lradius 22.1697
lwrist -27.7499
lhand -17.5634 -12.2227
lfingers 7.12502
lthumb 8.69166 17.5784
rfemur -4.6479 26.8796 22.6257
rtibia 1.32022
rfoot -12.1111 -27.1279
rtoes -1.84435
lfemur 7.26597 -52.2535 -12.8824
ltibia -4.54054
lfoot -42.7797 58.2319
ltoes 23.9083
4
root 0.0362398 17.4195 8.17292 9.62476 -1.69007 -9.01255
lowerback -0.780357 1.16167 5.28538
upperback -10.0856 2.05649 2.75507
thorax -10.2204 0.696882 -0.164231
lowerneck -10.904 -7.90556 -5.56704
upperneck 30.5385 -12.0105 5.24418
head 12.607 -5.39956 1.21503
rclavicle 1.15295e-014 4.46272e-014
rhumerus -45.6272 -24.349 -71.3164
rradius 24.8726
rwrist 43.9074
rhand 10.5176 -34.9678
rfingers 7.12502
rthumb 35.6171 -61.3774
lclavicle 1.15295e-014 4.46272e-014
lhumerus -46.4156 22.1825 75.9973
lradius 22.1852
lwrist -27.6757
lhand -17.4828 -12.23
lfingers 7.12502
lthumb 8.76945 17.5678
rfemur -4.72594 26.9611 22.6362
rtibia 1.34719
rfoot -12.1503 -27.1512
rtoes -1.5946
lfemur 7.17211 -52.1857 -12.753
ltibia -4.55244
lfoot -42.6589 58.2668
ltoes 23.7762
5
root 0.0338128 17.4228 8.17485 9.7549 -1.76157 -8.75706
lowerback -0.959302 1.16082 4.95435
upperback -10.1095 2.0228 2.71065
thorax -10.1452 0.708209 -0.022496
lowerneck -10.9457 -7.90245 -5.61253
upperneck 30.5929 -12.02 5.30718
head 12.6473 -5.39862 1.24235
rclavicle -1.66482e-015 -2.80286e-014
rhumerus -45.4494 -24.1718 -71.4468
rradius 24.6607
rwrist 43.7169
rhand 10.2358 -34.9078
rfingers 7.12502
rthumb 35.35 -61.3814
lclavicle -1.66482e-015 -2.80286e-014
lhumerus -46.3701 22.0063 76.148
lradius 22.1657
lwrist -27.3935
lhand -17.4614 -12.3064
lfingers 7.12502
lthumb 8.79007 17.4906
rfemur -4.88368 27.2065 22.2434
rtibia 1.30464
rfoot -12.2429 -27.3344
rtoes -0.52892
lfemur 6.98785 -52.4281 -12.9281
ltibia -4.47511
lfoot -43.3263 58.2957
ltoes 24.2907
6
root 0.0271108 17.4289 8.17888 9.95992 -1.92229 -8.25185
lowerback -1.33199 1.14332 4.22283
upperback -10.0955 1.93461 2.66722
thorax -9.92031 0.730128 0.349413
lowerneck -11.0171 -7.86577 -5.6461
upperneck 30.5867 -11.9602 5.32589
head 12.6594 -5.3714 1.26109
rclavicle 4.29872e-015 -1.44119e-014
rhumerus -44.9999 -23.8069 -71.6985
rradius 24.2004
rwrist 43.3964
rhand 9.62878 -34.7945
rfingers 7.12502
rthumb 34.7742 -61.403
lclavicle 4.29872e-015 -1.44119e-014
lhumerus -46.1611 21.5219 76.7251
lradius 22.3565
lwrist -26.8616
lhand -17.2496 -11.0795
lfingers 7.12502
lthumb 8.99453 18.7088
rfemur -5.16177 27.5554 21.4998
rtibia 1.25907
rfoot -12.2678 -27.5954
rtoes 1.08113
lfemur 6.72993 -52.9255 -13.3448
ltibia -4.33558
lfoot -44.7703 58.3392
ltoes 25.2688
7
root 0.0228314 17.4319 8.17986 10.0073 -2.01863 -7.93252
lowerback -0.892419 1.23271 3.99029
upperback -10.4846 2.07502 2.4396
thorax -10.6205 0.793379 0.218539
lowerneck -10.6703 -7.92315 -5.72431
upperneck 30.8557 -12.1102 5.44152
head 12.7243 -5.43809 1.30778
rclavicle 1.12313e-014 -1.48095e-014
rhumerus -45.6617 -23.7292 -71.5282
rradius 24.0596
rwrist 43.1794
rhand 9.36694 -34.6616
rfingers 7.12502
rthumb 34.5257 -61.3271
lclavicle 1.12313e-014 -1.48095e-014
lhumerus -46.7444 20.9681 76.4943
lradius 22.1841
lwrist -26.5313
lhand -17.5947 -12.3514
lfingers 7.12502
lthumb 8.66145 17.4509
rfemur -5.25017 27.6629 21.0777
rtibia 1.23806
rfoot -12.1674 -27.6815
rtoes 1.52458
lfemur 6.64454 -53.0683 -13.6665
ltibia -4.26312
lfoot -45.1732 58.4027
ltoes 25.3908
